Patient4_TMGait_0pt7_02_left_44_EMG.mot
version=1
nRows=13
nColumns=33
inDegrees=no
endheader
time	1LAddLong	2LGlutMax	3LGlutMed	4LIliopsoas	5LSemiMemb	6LBicFemLong	7LRecFem	8LVastMed	9LVastLat	10LGasMed	11LTibAnt	12lTibPost	13LPeroneusLong	14LSol	15LExtDigLong	16LFlexDigLong	17RAddLong	18RGlutMax	19RGlutMed	20RIliopsoas	21RSemiMemb	22RBicFemLong	23RRecFem	24RVastMed	25RVastLat	26RGasMed	27RTibAnt	28RTibPost	29RPeroneusLong	30RSol	31RExtDigLong	32RFlexDigLong
50.782	0.001526	1.4709	0.20584	0.010681	-0.19424	-0.65277	-0.33447	0.001068	-0.2359	-0.23926	0.036774	-0.04364	0.021057	-0.24399	0.015869	0.23361	-0.048218	-0.024109	0.065002	0.2298	0.15488	0.12528	0.91202	0.16968	0.002136	0.007324	-0.70633	-0.00946	0.083771	-0.05188	-0.00061	-0.014191
50.783	0.011902	1.4095	0.13245	0.014648	-0.19012	-0.51254	-0.28198	0.005951	-0.15991	-0.45548	0.02121	-0.002136	-0.045776	-0.23163	0.009613	-0.020905	-0.02594	-0.1297	-0.11734	0.13641	0.11765	0.10452	0.93124	0.13916	-0.013428	0.006104	-0.5101	-0.005951	-0.014191	-0.052185	0.000153	-0.016937
50.784	0.037384	1.3722	0.14481	-0.009613	0.01709	-0.28366	-0.26245	-0.026703	-0.13138	-0.38818	0.038147	0.005188	-0.039978	-0.054626	0.011139	-0.2475	0.001984	-0.19943	-0.084534	0.055695	0.046692	0.15274	0.914	0.083618	-0.032349	0.001984	0.002289	-0.009003	-0.18723	-0.072479	-0.000916	-0.015411
50.785	0.03952	1.261	0.17609	0.007477	0.079803	-0.10666	-0.15915	-0.019989	-0.10422	-0.38742	0.036926	-0.031281	0.010071	0.008087	-0.026245	0.039368	-0.011902	-0.16373	-0.050507	-0.019684	-0.046692	0.054626	0.93002	0.037994	-0.04776	-0.001221	0.21179	-0.005035	-0.21301	-0.038757	0	-0.016174
50.786	0.024261	1.2558	0.18265	0.011292	0.054626	0.16708	-0.15579	-0.004425	-0.03006	-0.32486	0.033112	0.17792	-0.003815	0.083313	-0.045471	0.093842	0.072937	-0.14084	-0.078735	0.015106	-0.054474	0.020294	0.93368	-0.018311	-0.04715	-0.001831	0.18845	-0.006866	-0.062103	-0.03006	0.001068	-0.019836
50.787	0.039368	1.2527	0.12482	0.001221	-0.035095	0.3801	-0.19547	0.02533	-0.02594	-0.27725	0.038605	0.1561	0.037079	0.12512	-0.014343	0.042114	0.049133	-0.215	-0.17197	0.045776	-0.016632	-0.019226	0.93094	-0.053864	-0.055237	-0.007172	0.37552	-0.006256	-0.10971	0.033417	0.011902	-0.027771
50.788	0.031433	1.2151	0.14862	-0.006256	-0.058441	0.5481	-0.22873	0.046692	0.030365	-0.25543	0.025482	0.44266	0.069275	0.12314	0.037384	-0.10452	0.065613	-0.2829	-0.36667	0.11581	0.12924	0.041351	0.93796	-0.079498	-0.050812	-0.008087	0.46845	-0.009613	-0.080719	0.15274	0.001678	-0.026093
50.789	0.027161	1.0985	0.23346	-0.01709	-0.027161	0.63034	-0.28198	0.015869	0.039215	-0.081177	0.013275	-0.50873	0.12146	-0.13489	0.03952	-0.1059	0.093384	-0.32288	-0.53909	0.11108	0.13702	-0.033112	0.99518	-0.13153	-0.084839	0.001984	0.18372	-0.005798	-0.041351	0.19714	-0.001831	-0.027008
50.79	0.027008	1.0083	0.22018	-0.002747	-0.023956	0.68405	-0.33402	-0.006104	-0.062866	0.22934	0.011902	-0.09201	0.076599	0.083923	0.031586	-0.075836	0.057678	-0.28702	-0.34119	0.12573	0.020142	-0.078278	1.0204	-0.1828	-0.078278	0.007629	-0.1976	-0.008545	-0.020599	0.28809	-0.000458	-0.036163
50.791	0.016632	0.86487	0.16144	-0.004425	-0.04364	0.60471	-0.21423	-0.005035	-0.097656	0.42206	0.012207	0.092926	0.10407	0.20752	0.015106	-0.049438	0.087891	-0.3125	-0.53207	0.16754	-0.015106	-0.24689	1.0101	-0.19257	-0.054169	0.008392	-0.39475	-0.006409	0.028992	0.29175	0.001373	-0.03418
50.792	0.006714	0.88425	0.15564	-0.002289	-0.098114	0.39749	-0.19409	-0.007019	-0.011292	0.46646	0.021057	0.071106	0.092468	-0.22812	-0.014954	0.011749	0.071869	-0.22171	-0.94696	0.23727	-0.000458	-0.27344	1.0368	-0.28091	-0.064087	0.004578	-0.43732	-0.002747	0.009308	0.16907	0.000305	-0.038605
50.793	0.00412	0.90805	0.18524	-0.006104	-0.11108	-0.009308	-0.24185	-0.01358	0.10071	0.28885	0.020142	0.10071	0.06073	-0.10864	-0.057678	-0.11246	0.1033	-0.11673	-0.68451	0.20828	-0.035553	-0.24384	1.013	-0.3186	-0.065155	0.001831	-0.22018	-0.005188	0.000153	0.049591	0.001068	-0.041504
50.794	0.003967	0.87128	0.14313	-0.014801	-0.079803	-0.36941	-0.2948	-0.018158	0.15243	-0.007935	0.018616	0.032196	0.018005	0.05249	-0.038147	-0.027771	0.098419	-0.033417	-0.23483	0.18448	-0.14297	-0.15869	0.98496	-0.33402	-0.057983	0.003967	0.014038	-0.005035	0.001984	0.014343	0.000916	-0.039063
